#N canvas 530 50 409 198 12;
#X declare -path ./lib;
#X declare -lib fd_lib;
#X declare -lib hidio;
#X text 159 11 (see console for correct device);
#N canvas 236 122 451 300 init 0;
#X obj 20 16 inlet;
#X msg 180 194 \; hidio open \$1 \; hidio-set 1 \; pd dsp 1 \; vol-line
85 \; pd-gui vis 1 \, editmode 0 \, zoom 2;
#X obj 33 41 loadbang;
#X obj 182 124 del 100;
#X msg 182 148 \; hidio devices;
#X obj 278 18 declare -path ./lib;
#X msg 20 212 \; pd dsp 0 \; disconnect bang \; hidio close \; pd quit
\;;
#X obj 122 108 r vol;
#X obj 20 66 route quit float;
#X msg 122 132 set \$1;
#X msg 122 156 90;
#X obj 74 137 t f b;
#X obj 74 175 pack;
#X msg 182 85 bang \; pd-vol vis 1 \, editmode 0 \, zoom 2 \;;
#X connect 0 0 8 0;
#X connect 2 0 8 0;
#X connect 3 0 4 0;
#X connect 7 0 9 0;
#X connect 8 0 6 0;
#X connect 8 1 11 0;
#X connect 8 2 13 0;
#X connect 9 0 10 0;
#X connect 10 0 12 1;
#X connect 11 0 12 0;
#X connect 11 1 10 0;
#X connect 12 0 1 0;
#X connect 13 0 3 0;
#X restore 176 158 pd init;
#X msg 176 44 5;
#X msg 302 139 quit;
#N canvas 559 104 473 528 network 0;
#X msg 13 39 listen 5009;
#X obj 13 85 netreceive -u -b 5009;
#X obj 13 109 list split 6;
#X obj 13 133 list tosymbol;
#X obj 53 164 list split 5;
#X obj 190 232 s score_number;
#X msg 93 271 connect localhost 5010;
#X obj 93 485 print status;
#X obj 93 451 netsend -u -b;
#X obj 111 369 oscformat;
#X obj 111 393 list prepend send;
#X obj 111 417 list trim;
#X obj 93 188 sel 35;
#X obj 111 298 r b9;
#X obj 111 322 sel 1;
#X obj 13 14 loadbang;
#X obj 111 346 random 34;
#X msg 363 319 disconnect;
#X msg 129 41 listen 0;
#X obj 331 57 r disconnect;
#X obj 331 81 t b b;
#X text 149 300 <-- change score page;
#X text 306 230 <-- get score_number;
#X text 25 251 (bang from max patch so we know it loaded);
#X obj 221 114 r connect;
#X obj 221 138 t b b;
#X obj 190 207 spigot;
#X obj 229 183 r enable_presets;
#X connect 0 0 1 0;
#X connect 1 0 2 0;
#X connect 2 0 3 0;
#X connect 2 1 4 0;
#X connect 4 1 12 0;
#X connect 6 0 8 0;
#X connect 8 0 7 0;
#X connect 9 0 10 0;
#X connect 10 0 11 0;
#X connect 11 0 8 0;
#X connect 12 0 6 0;
#X connect 12 1 26 0;
#X connect 13 0 14 0;
#X connect 14 0 16 0;
#X connect 15 0 0 0;
#X connect 16 0 9 0;
#X connect 17 0 8 0;
#X connect 18 0 1 0;
#X connect 19 0 20 0;
#X connect 20 0 18 0;
#X connect 20 1 17 0;
#X connect 24 0 25 0;
#X connect 25 0 6 0;
#X connect 25 1 0 0;
#X connect 26 0 5 0;
#X connect 27 0 26 1;
#X restore 8 31 pd network ________;
#N canvas 0 22 450 300 dependencies 0;
#X text 53 99 - else (pan4~.pd_darwin);
#X text 49 61 - vanilla (lrshift~.d_fat);
#X text 104 140 - counter.pd_darwin \; - crand.pd_darwin \; - iterate.pd_darwin
\; - lorenz.pd_darwin \; - minimax.pd_darwin \; - mtwister.pd_darwin
\;;
#X text 53 80 - hidio (hidio.pd_darwin);
#X text 29 26 DEPENDENCIES (only tested on macos):;
#X text 50 121 - fd_lib (only on macos for now...):;
#X obj 204 11 declare -lib fd_lib;
#X restore 8 8 pd dependencies ___;
#N canvas 697 437 450 300 instruments 0;
#N canvas 852 208 359 199 impulse 0;
#X obj 15 16 tgl 15 0 hidio hidio-set hidio 17 7 0 10 -204786 -1 -1
1 1;
#N canvas 188 159 738 569 left 0;
#X obj 128 252 fd_fm;
#X obj 94 147 mtof;
#X obj 111 182 expr $f1 \; $f1*3*$f2 \; $f1*1.5*$f2 \;;
#X obj 179 338 *~;
#X obj 179 367 *~;
#X obj 483 326 fd_switch;
#X text 31 414 very hot signal -->;
#X obj 179 462 throw~ dacout-1;
#X obj 79 58 r remap-ly;
#X floatatom 96 85 5 0 0 0 - - -;
#X floatatom 251 60 5 0 0 0 - - -;
#X obj 243 33 r x;
#X obj 243 84 fd_map2 0 255 0.2 35;
#X obj 534 100 sel 1;
#X obj 529 138 tgl 15 0 empty empty empty 17 7 0 10 -262144 -1 -1 0
1;
#X obj 546 423 switch~;
#X obj 482 282 r impulse-L;
#X obj 530 156 s impulse-L-set;
#X obj 544 25 r b5;
#X obj 244 129 phasor~;
#X obj 245 175 *~ 2048;
#X obj 246 203 +~ 1;
#X obj 238 247 tabread4~ 0-sin;
#X msg 325 203 set \$1;
#X obj 335 160 r imp-tab;
#X obj 237 307 lop~ 40;
#X floatatom 382 258 5 0 0 0 - - -;
#X obj 237 277 *~ 0.8;
#X obj 79 109 fd_map2 0 255 20 120;
#X obj 179 414 *~ 0.7;
#X connect 0 0 3 0;
#X connect 1 0 2 0;
#X connect 2 0 0 0;
#X connect 2 1 0 1;
#X connect 2 2 0 2;
#X connect 3 0 4 0;
#X connect 4 0 29 0;
#X connect 5 0 4 1;
#X connect 5 1 15 0;
#X connect 8 0 9 0;
#X connect 8 0 28 0;
#X connect 11 0 12 0;
#X connect 11 0 10 0;
#X connect 12 0 19 0;
#X connect 13 0 14 0;
#X connect 14 0 17 0;
#X connect 16 0 5 0;
#X connect 18 0 13 0;
#X connect 19 0 20 0;
#X connect 20 0 21 0;
#X connect 21 0 22 0;
#X connect 22 0 27 0;
#X connect 23 0 22 0;
#X connect 24 0 23 0;
#X connect 25 0 3 1;
#X connect 27 0 25 0;
#X connect 28 0 1 0;
#X connect 29 0 7 0;
#X restore 27 64 pd left;
#N canvas 681 185 599 545 right 0;
#X obj 93 242 fd_fm;
#X obj 76 142 mtof;
#X obj 76 172 expr $f1 \; $f1*3*$f2 \; $f1*1.5*$f2 \;;
#X obj 126 282 *~;
#X obj 126 366 *~;
#X obj 327 346 fd_switch;
#X obj 126 456 throw~ dacout-2;
#X floatatom 78 38 5 0 0 0 - - -;
#X floatatom 250 33 5 0 0 0 - - -;
#X obj 65 13 r remap-ry;
#X obj 238 10 r z;
#X obj 238 61 fd_map2 0 255 0.2 35;
#X obj 482 53 sel 1;
#X obj 477 91 tgl 15 0 empty empty empty 17 7 0 10 -262144 -1 -1 0
1;
#X obj 364 392 switch~;
#X obj 473 120 s impulse-R-set;
#X obj 332 321 r impulse-R;
#X obj 481 17 r b6;
#X obj 239 97 phasor~;
#X obj 240 128 *~ 2048;
#X obj 241 156 +~ 1;
#X obj 238 194 tabread4~ 0-sin;
#X msg 325 150 set \$1;
#X obj 321 123 r imp-tab;
#X obj 237 254 lop~ 40;
#X obj 237 224 *~ 0.8;
#X obj 65 64 fd_map2 0 255 20 120;
#X obj 126 411 *~ 0.7;
#X connect 0 0 3 0;
#X connect 1 0 2 0;
#X connect 2 0 0 0;
#X connect 2 1 0 1;
#X connect 2 2 0 2;
#X connect 3 0 4 0;
#X connect 4 0 27 0;
#X connect 5 0 4 1;
#X connect 5 1 14 0;
#X connect 9 0 7 0;
#X connect 9 0 26 0;
#X connect 10 0 11 0;
#X connect 10 0 8 0;
#X connect 11 0 18 0;
#X connect 12 0 13 0;
#X connect 13 0 15 0;
#X connect 16 0 5 0;
#X connect 17 0 12 0;
#X connect 18 0 19 0;
#X connect 19 0 20 0;
#X connect 20 0 21 0;
#X connect 21 0 25 0;
#X connect 22 0 21 0;
#X connect 23 0 22 0;
#X connect 24 0 3 1;
#X connect 25 0 24 0;
#X connect 26 0 1 0;
#X connect 27 0 6 0;
#X restore 26 93 pd right;
#X obj 213 17 r b3;
#X obj 208 77 counter -m 14;
#X obj 208 103 fd_seltab;
#X obj 206 128 s imp-tab-set;
#X symbolatom 60 25 0 0 0 2 imp-tab imp-tab-set imp-tab;
#X obj 252 44 loadbang;
#X obj 210 47 sel 1;
#X connect 3 0 9 0;
#X connect 4 0 5 0;
#X connect 5 0 6 0;
#X connect 8 0 4 0;
#X connect 9 0 4 0;
#X restore 18 73 pd impulse;
#N canvas 361 89 891 570 lorenz 0;
#X obj 310 366 r lor;
#X obj 309 390 fd_switch;
#X obj 369 418 switch~;
#X obj 12 8 tgl 15 0 hidio hidio-set hidio 17 7 0 10 -204786 -1 -1
1 1;
#X obj 64 8 tgl 15 0 lor lor-set lor 17 7 0 10 -262144 -1 -1 0 1;
#X obj 40 106 r lor;
#X obj 40 130 metro 1;
#X obj 40 154 lorenz;
#X obj 86 298 vline~;
#X obj 126 321 vline~;
#X obj 86 361 *~ 0.33;
#X obj 167 342 vline~;
#X obj 40 178 unpack f f f;
#X obj 40 202 fd_norm;
#X obj 80 225 fd_norm;
#X obj 121 251 fd_norm;
#X obj 86 409 *~;
#X obj 121 28 r remap-ry;
#X obj 277 194 sel 1;
#X obj 277 220 s lor-set;
#X floatatom 123 138 5 0 0 0 - - -;
#X obj 50 518 throw~ dacout-1;
#X obj 543 98 r lor;
#X obj 543 122 metro 1;
#X obj 543 146 lorenz;
#X obj 589 290 vline~;
#X obj 629 313 vline~;
#X obj 589 353 *~ 0.33;
#X obj 670 334 vline~;
#X obj 543 170 unpack f f f;
#X obj 543 194 fd_norm;
#X obj 583 217 fd_norm;
#X obj 624 243 fd_norm;
#X obj 589 401 *~;
#X floatatom 626 130 5 0 0 0 - - -;
#X obj 624 20 r remap-ly;
#X obj 624 44 fd_map2 0 256 0.3 0.002;
#X obj 121 52 fd_map2 0 256 0.3 0.002;
#X obj 86 106 max 0.004;
#X obj 589 98 max 0.004;
#X obj 179 400 r x;
#X obj 179 426 / 256;
#X obj 175 447 fd_pan;
#X obj 68 463 *~;
#X obj 108 463 *~;
#X obj 569 514 throw~ dacout-1;
#X obj 698 422 / 256;
#X obj 694 443 fd_pan;
#X obj 587 459 *~;
#X obj 627 459 *~;
#X obj 698 396 r z;
#X obj 170 518 throw~ dacout-2;
#X obj 689 514 throw~ dacout-2;
#X obj 277 168 r b1;
#X connect 0 0 1 0;
#X connect 1 0 16 1;
#X connect 1 0 33 1;
#X connect 1 1 2 0;
#X connect 5 0 6 0;
#X connect 6 0 7 0;
#X connect 7 0 12 0;
#X connect 8 0 10 0;
#X connect 9 0 10 0;
#X connect 10 0 16 0;
#X connect 11 0 10 0;
#X connect 12 0 13 0;
#X connect 12 1 14 0;
#X connect 12 2 15 0;
#X connect 13 1 8 0;
#X connect 14 1 9 0;
#X connect 15 1 11 0;
#X connect 16 0 43 0;
#X connect 16 0 44 0;
#X connect 17 0 37 0;
#X connect 18 0 19 0;
#X connect 22 0 23 0;
#X connect 23 0 24 0;
#X connect 24 0 29 0;
#X connect 25 0 27 0;
#X connect 26 0 27 0;
#X connect 27 0 33 0;
#X connect 28 0 27 0;
#X connect 29 0 30 0;
#X connect 29 1 31 0;
#X connect 29 2 32 0;
#X connect 30 1 25 0;
#X connect 31 1 26 0;
#X connect 32 1 28 0;
#X connect 33 0 48 0;
#X connect 33 0 49 0;
#X connect 35 0 36 0;
#X connect 36 0 39 0;
#X connect 37 0 38 0;
#X connect 38 0 6 1;
#X connect 38 0 20 0;
#X connect 39 0 23 1;
#X connect 39 0 34 0;
#X connect 40 0 41 0;
#X connect 41 0 42 0;
#X connect 42 0 43 1;
#X connect 42 1 44 1;
#X connect 43 0 21 0;
#X connect 44 0 51 0;
#X connect 46 0 47 0;
#X connect 47 0 48 1;
#X connect 47 1 49 1;
#X connect 48 0 45 0;
#X connect 49 0 52 0;
#X connect 50 0 46 0;
#X connect 53 0 18 0;
#X restore 18 100 pd lorenz;
#X obj 267 21 r pd-dsp-started;
#X obj 267 104 fd_windows 0 2051;
#X obj 267 43 bng 15 250 50 0 empty empty empty 17 7 0 10 -262144 -1
-1;
#N canvas 253 0 911 694 fm_mod 0;
#X obj 292 296 *~;
#X obj 292 246 osc~;
#X obj 16 16 tgl 15 0 hidio hidio-set hidio 17 7 0 10 -204786 -1 -1
1 1;
#X obj 484 87 r ry;
#X obj 205 322 r rx;
#X obj 491 170 / 255;
#X obj 288 40 r b6;
#X obj 292 172 crand 10 100;
#X obj 292 196 pack f 1000;
#X obj 292 105 sel 1 0;
#X obj 292 220 line~;
#X obj 491 196 pack f 10;
#X obj 491 220 line~;
#X obj 491 277 +~ 1;
#X obj 224 386 / 255;
#X obj 106 196 pack f 1000;
#X obj 112 141 sel 1 0;
#X obj 106 220 line~;
#X obj 106 74 r b5;
#X obj 224 410 pack f 100;
#X obj 224 434 line~;
#X obj 88 490 phasor~;
#X obj 224 530 cos~;
#X obj 88 527 cos~;
#X obj 88 296 +~ 40;
#X obj 106 172 crand 50 5000;
#X obj 296 479 phasor~;
#X obj 296 503 *~ 2048;
#X obj 296 527 +~ 1;
#X obj 296 551 tabread4~;
#X obj 296 575 lop~ 100;
#X obj 88 594 *~;
#X obj 224 594 *~;
#X obj 485 376 r b1;
#X obj 467 443 sel 1;
#X obj 467 491 fd_seltab;
#X obj 467 467 random 14;
#X msg 467 515 set \$1;
#X obj 296 453 *~ 400;
#X obj 366 145 crand 10 100;
#X obj 180 145 crand 10 100;
#X obj 642 76 r b4;
#X obj 645 150 sel 1;
#X obj 645 198 t f f;
#X obj 403 20 expr $f1 \; $f1*1.2;
#X obj 403 64 pack;
#X msg 403 88 set \$1 \$2;
#X obj 88 39 lop~ 10;
#X obj 88 246 *~;
#X obj 88 15 phasor~ -112;
#X obj 645 174 random 30;
#X obj 765 41 r b10;
#X obj 765 65 sel 1;
#X obj 765 89 tgl 15 0 empty empty empty 17 7 0 10 -262144 -1 -1 0
1;
#X obj 728 605 fd_switch;
#X obj 805 623 switch~;
#X obj 88 624 *~;
#X obj 224 624 *~;
#X obj 491 255 *~ 2000;
#X obj 765 109 s fm-set;
#X obj 728 578 r fm;
#X obj 403 112 t a a;
#X obj 688 79 r fm;
#X obj 651 111 spigot;
#X obj 330 43 r fm;
#X obj 293 75 spigot;
#X obj 155 74 r fm;
#X obj 118 106 spigot;
#X obj 539 381 r fm;
#X obj 502 413 spigot;
#X obj 267 324 r fm;
#X obj 230 356 spigot;
#X obj 552 85 r fm;
#X obj 496 145 spigot;
#X floatatom 37 37 5 0 0 0 - - -;
#X floatatom 485 402 5 0 0 0 - - -;
#X floatatom 552 111 5 0 0 0 - - -;
#X floatatom 484 113 5 0 0 0 - - -;
#X obj 88 653 throw~ dacout-1;
#X obj 224 652 throw~ dacout-2;
#X obj 224 562 *~ 0.1;
#X obj 88 560 *~ 0.1;
#X obj 367 665 dac~ 3 4;
#X connect 0 0 21 0;
#X connect 1 0 0 0;
#X connect 3 0 73 0;
#X connect 3 0 77 0;
#X connect 4 0 71 0;
#X connect 5 0 11 0;
#X connect 6 0 65 0;
#X connect 7 0 8 0;
#X connect 8 0 10 0;
#X connect 9 0 7 0;
#X connect 9 1 39 0;
#X connect 10 0 1 0;
#X connect 11 0 12 0;
#X connect 12 0 58 0;
#X connect 13 0 0 1;
#X connect 14 0 19 0;
#X connect 15 0 17 0;
#X connect 16 0 25 0;
#X connect 16 1 40 0;
#X connect 17 0 48 1;
#X connect 18 0 67 0;
#X connect 19 0 20 0;
#X connect 20 0 22 0;
#X connect 20 0 38 0;
#X connect 21 0 22 0;
#X connect 21 0 23 0;
#X connect 22 0 80 0;
#X connect 23 0 81 0;
#X connect 24 0 21 0;
#X connect 25 0 15 0;
#X connect 26 0 27 0;
#X connect 27 0 28 0;
#X connect 28 0 29 0;
#X connect 29 0 30 0;
#X connect 30 0 32 1;
#X connect 30 0 31 1;
#X connect 31 0 56 0;
#X connect 32 0 57 0;
#X connect 33 0 69 0;
#X connect 33 0 75 0;
#X connect 34 0 36 0;
#X connect 35 0 37 0;
#X connect 36 0 35 0;
#X connect 37 0 29 0;
#X connect 38 0 26 0;
#X connect 39 0 8 1;
#X connect 40 0 15 1;
#X connect 41 0 63 0;
#X connect 42 0 50 0;
#X connect 43 0 44 0;
#X connect 43 1 38 1;
#X connect 44 0 45 0;
#X connect 44 1 45 1;
#X connect 45 0 46 0;
#X connect 46 0 61 0;
#X connect 47 0 48 0;
#X connect 48 0 24 0;
#X connect 49 0 47 0;
#X connect 50 0 43 0;
#X connect 51 0 52 0;
#X connect 52 0 53 0;
#X connect 53 0 59 0;
#X connect 54 0 57 1;
#X connect 54 0 56 1;
#X connect 54 1 55 0;
#X connect 56 0 78 0;
#X connect 56 0 82 0;
#X connect 57 0 79 0;
#X connect 57 0 82 1;
#X connect 58 0 13 0;
#X connect 60 0 54 0;
#X connect 61 0 40 0;
#X connect 61 1 39 0;
#X connect 62 0 63 1;
#X connect 63 0 42 0;
#X connect 64 0 65 1;
#X connect 65 0 9 0;
#X connect 66 0 67 1;
#X connect 67 0 16 0;
#X connect 68 0 69 1;
#X connect 69 0 34 0;
#X connect 70 0 71 1;
#X connect 71 0 14 0;
#X connect 72 0 73 1;
#X connect 72 0 76 0;
#X connect 73 0 5 0;
#X connect 80 0 32 0;
#X connect 81 0 31 0;
#X restore 18 18 pd fm_mod;
#N canvas 10 53 1270 627 grains 0;
#X obj 13 10 tgl 15 0 hidio hidio-set hidio 17 7 0 10 -204786 -1 -1
1 1;
#X obj 513 442 r b13;
#X obj 513 466 sel 1;
#X obj 513 491 tgl 15 0 empty empty empty 17 7 0 10 -262144 -1 -1 0
1;
#X obj 602 473 switch~;
#X obj 197 243 r rx;
#X obj 512 512 s gr-set;
#X obj 405 315 fd_seltab;
#X obj 77 359 list;
#X obj 77 385 t b a;
#X obj 477 315 fd_seltab;
#X obj 405 340 list;
#X obj 77 527 list;
#X obj 179 508 r gr;
#X obj 202 194 crand 0.1 33;
#X obj 369 94 loadbang;
#X obj 77 299 crand 10 133;
#X obj 356 26 r b1;
#X obj 360 70 sel;
#X msg 179 532 all \$1;
#X obj 77 332 * 1;
#X obj 77 458 array get _grfree 0 1;
#X obj 443 477 r gr;
#X obj 77 482 sel 1;
#X obj 443 501 sel;
#X msg 443 525 const 1;
#X obj 77 434 t f f;
#X obj 77 505 f;
#X obj 178 5 r ry;
#X obj 202 75 expr $f1 \; $f1*10;
#X obj 202 113 pack;
#X obj 202 137 list prepend set;
#X obj 202 161 list trim;
#X obj 202 51 fd_map2 0 255 1 10;
#X obj 83 134 r b7;
#X obj 77 189 metro 1;
#X obj 77 213 t b b;
#X obj 77 269 t b;
#X obj 77 111 r b8;
#X obj 77 163 spigot;
#X obj 116 111 r gr;
#X msg 405 289 0;
#X obj 405 265 sel 11;
#X obj 602 448 r gr;
#X obj 360 122 expr random(10 \, 15) \; random(10 \, 15);
#X obj 620 11 r up;
#X obj 690 264 counter;
#X obj 700 8 r down;
#X msg 625 197 i 1 \, bang;
#X msg 724 198 i -1 \, bang;
#X obj 749 357 + 1;
#X obj 816 531 v gt;
#X obj 71 19 nbx 5 14 -1e+37 1e+37 0 0 gt gt-set gt 0 -8 0 10 -262144
-1 -1 0.98 256;
#X obj 749 381 s gt-set;
#X obj 816 508 r gt;
#X obj 839 172 loadbang;
#X msg 839 197 -1 \, bang;
#X obj 748 333 / 50;
#X obj 812 46 r release;
#X obj 756 126 metro 10;
#X msg 812 70 0;
#X msg 703 71 1;
#X obj 649 127 metro 10;
#X msg 620 71 1;
#X obj 751 308 moses 40;
#X msg 630 287 0;
#X msg 817 284 0;
#X obj 690 285 moses -28;
#X obj 473 350 s gr-osc;
#X obj 543 349 s gr-env;
#X obj 390 220 unpack;
#X obj 400 11 text define -k \$0-tabs;
#A set 13 13 \; 14 12 \; 11 11 \; 13 14 \; 12 11 \; 12 11 \; 13 12
\; 12 12 \; 12 12 \; 10 10 \; 10 10 \; 11 10 \; 14 13 \; 14 13 \; 14
13 \; 14 13 \; 14 13 \; 13 13 \; 13 13 \; 14 13 \;;
#X obj 361 158 pack;
#X obj 375 178 t a a;
#X obj 1079 419 text set \$0-tabs;
#X obj 1076 369 list;
#X obj 1077 394 t a b;
#X msg 1128 389 1.11111e+08;
#X obj 1059 228 r b2;
#X obj 1061 307 sel 1;
#X obj 445 202 s store-tabs;
#X obj 1130 302 r store-tabs;
#X obj 1060 329 t b b;
#X obj 1045 476 text sequence \$0-tabs;
#X floatatom 534 276 5 0 0 0 - - -;
#X obj 355 48 spigot;
#X obj 394 26 r gr;
#X obj 620 37 spigot;
#X obj 659 15 r gr;
#X obj 714 38 spigot;
#X obj 753 16 r gr;
#X obj 1060 268 spigot;
#X obj 1099 246 r gr;
#X msg 1046 452 line 0 \, auto;
#X msg 466 277 0;
#X obj 466 253 sel 11;
#X floatatom 178 29 5 0 0 0 - - -;
#X floatatom 197 267 5 0 0 0 - - -;
#X obj 77 558 clone _gr 60 2;
#X obj 77 410 counter -m 60;
#X obj 77 245 counter -m 60;
#X obj 443 551 array define _grfree 60;
#X obj 199 313 fd_map2 0 255 0.3 10;
#X obj 891 232 r gt-set-set;
#X obj 439 163 r gr-tab;
#X obj 37 145 tgl 15 0 empty empty empty 17 7 0 10 -262144 -1 -1 0
1;
#X obj 18 229 bng 15 250 50 0 empty empty empty 17 7 0 10 -262144 -1
-1;
#X connect 1 0 2 0;
#X connect 2 0 3 0;
#X connect 3 0 6 0;
#X connect 5 0 97 0;
#X connect 5 0 102 0;
#X connect 7 0 11 0;
#X connect 7 1 68 0;
#X connect 8 0 9 0;
#X connect 9 0 99 0;
#X connect 9 1 12 1;
#X connect 10 0 11 1;
#X connect 10 1 69 0;
#X connect 11 0 8 1;
#X connect 12 0 98 0;
#X connect 13 0 19 0;
#X connect 14 0 35 1;
#X connect 15 0 44 0;
#X connect 16 0 20 0;
#X connect 17 0 85 0;
#X connect 18 0 44 0;
#X connect 19 0 98 1;
#X connect 20 0 8 0;
#X connect 21 0 23 0;
#X connect 22 0 24 0;
#X connect 23 0 27 0;
#X connect 24 0 25 0;
#X connect 25 0 101 0;
#X connect 26 0 21 0;
#X connect 26 1 27 1;
#X connect 27 0 12 0;
#X connect 28 0 33 0;
#X connect 28 0 96 0;
#X connect 29 0 30 0;
#X connect 29 1 30 1;
#X connect 30 0 31 0;
#X connect 31 0 32 0;
#X connect 32 0 14 0;
#X connect 33 0 29 0;
#X connect 34 0 39 0;
#X connect 35 0 36 0;
#X connect 36 0 100 0;
#X connect 36 0 106 0;
#X connect 36 1 14 0;
#X connect 37 0 16 0;
#X connect 38 0 39 0;
#X connect 39 0 35 0;
#X connect 40 0 39 1;
#X connect 41 0 7 0;
#X connect 42 0 41 0;
#X connect 42 1 7 0;
#X connect 43 0 4 0;
#X connect 44 0 72 0;
#X connect 44 1 72 1;
#X connect 45 0 87 0;
#X connect 46 0 67 0;
#X connect 47 0 89 0;
#X connect 48 0 46 0;
#X connect 49 0 46 0;
#X connect 50 0 53 0;
#X connect 54 0 51 0;
#X connect 55 0 56 0;
#X connect 56 0 46 0;
#X connect 57 0 50 0;
#X connect 58 0 60 0;
#X connect 59 0 49 0;
#X connect 60 0 59 0;
#X connect 60 0 62 0;
#X connect 61 0 59 0;
#X connect 62 0 48 0;
#X connect 63 0 62 0;
#X connect 64 0 57 0;
#X connect 64 1 66 0;
#X connect 65 0 59 0;
#X connect 66 0 62 0;
#X connect 67 0 65 0;
#X connect 67 1 64 0;
#X connect 70 0 42 0;
#X connect 70 1 95 0;
#X connect 72 0 73 0;
#X connect 73 0 70 0;
#X connect 73 1 80 0;
#X connect 75 0 76 0;
#X connect 76 0 74 0;
#X connect 76 1 77 0;
#X connect 77 0 74 1;
#X connect 78 0 91 0;
#X connect 79 0 82 0;
#X connect 81 0 75 1;
#X connect 82 0 75 0;
#X connect 82 1 93 0;
#X connect 84 0 10 0;
#X connect 85 0 18 0;
#X connect 86 0 85 1;
#X connect 87 0 63 0;
#X connect 88 0 87 1;
#X connect 89 0 61 0;
#X connect 90 0 89 1;
#X connect 91 0 79 0;
#X connect 92 0 91 1;
#X connect 93 0 83 0;
#X connect 94 0 10 0;
#X connect 95 0 94 0;
#X connect 95 1 10 0;
#X connect 99 0 26 0;
#X connect 100 0 37 0;
#X connect 102 0 20 1;
#X connect 103 0 46 0;
#X connect 104 0 73 0;
#X restore 18 45 pd grains;
#N canvas 206 56 894 375 voices 0;
#N canvas 0 22 565 300 arrays 0;
#X obj 209 22 clone fd_arrayclone 70 define s;
#X msg 36 39 70;
#X obj 36 63 iterate;
#X obj 36 218 soundfiler;
#X msg 36 194 read -resize \$2 s-\$1;
#X obj 36 163 list prepend;
#X obj 36 118 makefilename /Users/federicocamarahalac/Documents/fd_voice/recvoice/rec/voice-%d.wav
, f 71;
#X obj 36 13 loadbang;
#X obj 36 92 t f f f;
#X obj 36 244 s;
#X obj 215 223 makefilename s-%d-size;
#X text 226 198 send size to _tabread4~;
#X connect 1 0 2 0;
#X connect 2 0 8 0;
#X connect 3 0 9 0;
#X connect 4 0 3 0;
#X connect 5 0 4 0;
#X connect 6 0 5 0;
#X connect 7 0 1 0;
#X connect 8 0 6 0;
#X connect 8 1 5 1;
#X connect 8 2 10 0;
#X connect 10 0 9 1;
#X restore 73 276 pd arrays;
#X msg 384 222 all bang;
#X msg 566 256 all \$1;
#X obj 776 15 r b14;
#X obj 776 71 sel 1;
#X obj 776 97 tgl 15 0 empty empty empty 17 7 0 10 -262144 -1 -1 0
1;
#X obj 776 123 s voices-set;
#X obj 70 16 tgl 15 0 voices voices-set voices 17 7 0 10 -262144 -1
-1 0 1;
#X obj 15 16 tgl 15 0 hidio hidio-set hidio 17 7 0 10 -204786 -1 -1
1 1;
#X obj 150 14 r up;
#X obj 150 89 spigot;
#X obj 197 89 r voices;
#X msg 150 115 i 1 \, bang;
#X obj 270 56 spigot;
#X obj 319 57 r voices;
#X obj 270 14 r down;
#X msg 270 82 i -1 \, bang;
#X obj 387 89 spigot;
#X obj 437 61 r voices;
#X obj 387 14 r left;
#X obj 387 115 random 70;
#X msg 387 141 \$1 \, bang;
#X obj 226 162 counter;
#X obj 226 188 moses;
#X obj 269 188 moses 70;
#X msg 341 184 0;
#X msg 188 184 70;
#X obj 566 230 r voices;
#X obj 466 14 r b12;
#X obj 524 14 r b11;
#X obj 499 150 random 300;
#X obj 499 202 delit;
#X obj 549 125 bng 15 250 50 0 empty empty empty 17 7 0 10 -262144
-1 -1;
#X text 389 311 try _tabplay or _tabread4~;
#X text 19 244 arrays load on loadbang:;
#X obj 619 14 r right;
#X obj 619 77 spigot;
#X obj 670 79 r voices;
#X obj 619 103 random 70;
#X obj 619 129 t f b;
#X obj 662 131 random 100;
#X obj 619 155 pack;
#X obj 619 181 t b a;
#X obj 384 277 clone _tabplay 70 s;
#X obj 619 45 bang;
#X obj 511 82 bang;
#X obj 387 51 bang;
#X obj 737 247 r voices;
#X obj 737 273 switch~;
#X msg 499 176 69 \$1 \, bang;
#X connect 1 0 43 0;
#X connect 2 0 43 1;
#X connect 4 0 5 0;
#X connect 5 0 6 0;
#X connect 9 0 10 0;
#X connect 10 0 12 0;
#X connect 11 0 10 1;
#X connect 12 0 22 0;
#X connect 13 0 16 0;
#X connect 14 0 13 1;
#X connect 15 0 13 0;
#X connect 16 0 22 0;
#X connect 17 0 20 0;
#X connect 18 0 17 1;
#X connect 19 0 46 0;
#X connect 20 0 21 0;
#X connect 21 0 22 0;
#X connect 22 0 23 0;
#X connect 23 0 26 0;
#X connect 23 1 24 0;
#X connect 24 0 43 0;
#X connect 24 1 25 0;
#X connect 25 0 22 0;
#X connect 26 0 22 0;
#X connect 27 0 2 0;
#X connect 28 0 1 0;
#X connect 29 0 45 0;
#X connect 30 0 49 0;
#X connect 31 0 43 0;
#X connect 32 0 30 0;
#X connect 35 0 44 0;
#X connect 36 0 38 0;
#X connect 37 0 36 1;
#X connect 38 0 39 0;
#X connect 39 0 41 0;
#X connect 39 1 40 0;
#X connect 40 0 41 1;
#X connect 41 0 42 0;
#X connect 42 0 31 0;
#X connect 42 1 31 0;
#X connect 44 0 36 0;
#X connect 45 0 30 0;
#X connect 46 0 17 0;
#X connect 47 0 48 0;
#X connect 49 0 31 0;
#X restore 16 126 pd voices;
#X connect 2 0 4 0;
#X restore 8 54 pd instruments ____;
#N canvas 130 94 697 529 spatializer 0;
#X obj 160 93 r remap-ly;
#X obj 96 93 r x;
#X obj 257 9 r b11;
#X obj 96 145 spigot;
#X obj 160 146 spigot;
#X obj 160 170 - 128;
#X obj 57 355 else/pan4~, f 20;
#X obj 96 169 - 128;
#X obj 160 194 / 128;
#X obj 96 193 / 128;
#X obj 407 187 spigot;
#X obj 473 186 spigot;
#X obj 473 210 - 128;
#X obj 407 211 - 128;
#X obj 473 234 / 128;
#X obj 407 235 / 128;
#X obj 407 135 r z;
#X obj 473 133 r remap-ry;
#X obj 57 388 throw~ dacout-1;
#X obj 67 408 throw~ dacout-2;
#X obj 352 363 else/pan4~, f 20;
#X obj 352 396 throw~ dacout-1;
#X obj 362 416 throw~ dacout-2;
#X obj 257 33 sel 1;
#X obj 256 79 tgl 15 0 empty empty empty 17 7 0 10 -262144 -1 -1 0
1;
#X obj 558 45 sel 1;
#X obj 557 91 tgl 15 0 empty empty empty 17 7 0 10 -262144 -1 -1 0
1;
#X obj 558 21 r b12;
#X obj 96 295 pack f 3;
#X obj 96 317 line~;
#X obj 160 293 pack f 3;
#X obj 160 315 line~;
#X obj 407 321 line~;
#X obj 473 298 pack f 3;
#X obj 473 320 line~;
#X obj 407 299 pack f 3;
#X obj 96 235 * -1;
#X obj 160 235 * -1;
#X obj 57 273 catch~ space-L;
#X obj 352 275 catch~ space-R;
#X obj 227 159 s spat-L-set;
#X obj 533 203 s spat-R-set;
#X text 52 214 innvert/reflect left hand;
#X obj 256 103 t f f f;
#X obj 557 115 t f f f;
#X text 520 365 <-- thanks Alex!;
#X obj 77 428 throw~ dacout-1;
#X obj 87 448 throw~ dacout-2;
#X obj 372 436 throw~ dacout-1;
#X obj 382 456 throw~ dacout-2;
#X obj 592 310 tgl 15 0 empty empty empty 17 7 0 10 -262144 -1 -1 0
1;
#X obj 592 330 switch~;
#X connect 0 0 4 0;
#X connect 1 0 3 0;
#X connect 2 0 23 0;
#X connect 3 0 7 0;
#X connect 4 0 5 0;
#X connect 5 0 8 0;
#X connect 6 0 18 0;
#X connect 6 1 19 0;
#X connect 6 2 46 0;
#X connect 6 3 47 0;
#X connect 7 0 9 0;
#X connect 8 0 37 0;
#X connect 9 0 36 0;
#X connect 10 0 13 0;
#X connect 11 0 12 0;
#X connect 12 0 14 0;
#X connect 13 0 15 0;
#X connect 14 0 33 0;
#X connect 15 0 35 0;
#X connect 16 0 10 0;
#X connect 17 0 11 0;
#X connect 20 0 21 0;
#X connect 20 1 22 0;
#X connect 20 2 48 0;
#X connect 20 3 49 0;
#X connect 24 0 43 0;
#X connect 26 0 44 0;
#X connect 27 0 25 0;
#X connect 28 0 29 0;
#X connect 29 0 6 1;
#X connect 30 0 31 0;
#X connect 31 0 6 2;
#X connect 32 0 20 1;
#X connect 33 0 34 0;
#X connect 34 0 20 2;
#X connect 35 0 32 0;
#X connect 36 0 28 0;
#X connect 37 0 30 0;
#X connect 38 0 6 0;
#X connect 39 0 20 0;
#X connect 43 0 3 1;
#X connect 43 1 4 1;
#X connect 43 2 40 0;
#X connect 44 0 10 1;
#X connect 44 1 11 1;
#X connect 44 2 41 0;
#X connect 50 0 51 0;
#X restore 8 77 pd spatializer ____;
#N canvas 528 369 450 300 hidio 0;
#X obj 36 55 hidio;
#X obj 36 111 route button absolute;
#X msg 34 158 \; \$1-\$2 \$3;
#X obj 35 134 list;
#X msg 108 160 \; \$1-\$2 \$3;
#X obj 109 136 list;
#X obj 36 18 r hidio;
#X obj 275 21 declare -lib hidio;
#N canvas 533 134 663 526 receivers 0;
#X obj 472 322 r b1;
#X obj 518 343 r b2;
#X obj 560 325 r b3;
#X obj 514 285 r b4;
#X obj 123 208 r b5;
#X obj 506 199 r b6;
#X obj 123 158 r b7;
#X obj 505 153 r b8;
#X obj 80 156 r rx;
#X obj 547 150 r ry;
#X floatatom 80 180 5 0 0 0 - - -;
#X floatatom 547 174 5 0 0 0 - - -;
#X floatatom 472 345 5 0 0 0 - - -;
#X floatatom 518 367 5 0 0 0 - - -;
#X floatatom 560 349 5 0 0 0 - - -;
#X floatatom 514 309 5 0 0 0 - - -;
#X floatatom 123 232 5 0 0 0 - - -;
#X floatatom 506 223 5 0 0 0 - - -;
#X floatatom 123 182 5 0 0 0 - - -;
#X floatatom 505 177 5 0 0 0 - - -;
#X floatatom 246 470 5 0 0 0 - - -;
#X floatatom 220 421 5 0 0 0 - - -;
#X obj 246 446 r remap-ly;
#X floatatom 389 471 5 0 0 0 - - -;
#X floatatom 431 472 5 0 0 0 - - -;
#X floatatom 199 469 5 0 0 0 - - -;
#X obj 431 448 r remap-ry;
#X obj 199 445 r x;
#X obj 389 447 r z;
#X obj 220 397 r b11;
#X floatatom 411 421 5 0 0 0 - - -;
#X floatatom 241 303 5 0 0 0 - - -;
#X floatatom 430 309 5 0 0 0 - - -;
#X obj 241 279 r b9;
#X obj 430 285 r b10;
#X obj 411 397 r b12;
#X floatatom 338 481 5 0 0 0 - - -;
#X floatatom 334 326 5 0 0 0 - - -;
#X obj 338 457 r b13;
#X obj 334 302 r b14;
#X obj 51 396 bng 15 250 50 0 empty empty empty 17 7 0 10 -262144 -1
-1;
#X obj 124 319 bng 15 250 50 0 empty empty empty 17 7 0 10 -262144
-1 -1;
#X obj 155 340 bng 15 250 50 0 empty empty empty 17 7 0 10 -262144
-1 -1;
#X obj 126 392 bng 15 250 50 0 empty empty empty 17 7 0 10 -262144
-1 -1;
#X obj 82 344 bng 15 250 50 0 empty empty empty 17 7 0 10 -262144 -1
-1;
#X obj 122 296 r up;
#X obj 155 318 r right;
#X obj 77 320 r left;
#X obj 126 370 r down;
#X obj 50 374 r release;
#X obj 83 26 r y-0;
#X obj 178 23 r rz-0;
#X obj 272 18 r hatswitch-0;
#X msg 83 50 255 \$1;
#X obj 83 74 -;
#X msg 178 47 255 \$1;
#X obj 178 71 -;
#X obj 178 95 s remap-ry-0;
#X obj 83 98 s remap-ly-0;
#X obj 279 156 s up-set;
#X obj 272 42 sel 8 0 2 4 6;
#X obj 346 72 s left-set;
#X obj 297 135 s right-set;
#X obj 322 112 s down-set;
#X obj 272 66 s release-set;
#X obj 271 212 r button_16-0;
#X obj 321 242 r button_15-0;
#X obj 390 11 r button_5;
#X obj 390 37 sel 1;
#X obj 433 63 sel 1;
#X obj 477 87 sel 1;
#X obj 521 112 sel 1;
#X obj 433 37 r button_6;
#X obj 521 86 r button_8;
#X obj 477 61 r button_7;
#X connect 0 0 12 0;
#X connect 1 0 13 0;
#X connect 2 0 14 0;
#X connect 3 0 15 0;
#X connect 4 0 16 0;
#X connect 5 0 17 0;
#X connect 6 0 18 0;
#X connect 7 0 19 0;
#X connect 8 0 10 0;
#X connect 9 0 11 0;
#X connect 22 0 20 0;
#X connect 26 0 24 0;
#X connect 27 0 25 0;
#X connect 28 0 23 0;
#X connect 29 0 21 0;
#X connect 33 0 31 0;
#X connect 34 0 32 0;
#X connect 35 0 30 0;
#X connect 38 0 36 0;
#X connect 39 0 37 0;
#X connect 45 0 41 0;
#X connect 46 0 42 0;
#X connect 47 0 44 0;
#X connect 48 0 43 0;
#X connect 49 0 40 0;
#X connect 50 0 53 0;
#X connect 51 0 55 0;
#X connect 52 0 60 0;
#X connect 53 0 54 0;
#X connect 54 0 58 0;
#X connect 55 0 56 0;
#X connect 56 0 57 0;
#X connect 60 0 64 0;
#X connect 60 1 59 0;
#X connect 60 2 62 0;
#X connect 60 3 63 0;
#X connect 60 4 61 0;
#X connect 67 0 68 0;
#X connect 68 0 59 0;
#X connect 69 0 62 0;
#X connect 70 0 63 0;
#X connect 71 0 61 0;
#X connect 72 0 69 0;
#X connect 73 0 71 0;
#X connect 74 0 70 0;
#X restore 33 237 pd receivers;
#X obj 257 180 route float;
#X obj 257 155 r hidio;
#X msg 257 204 \; hidio-set set \$1;
#N canvas 537 281 318 205 controller 1;
#X obj 254 119 tgl 30 0 b2 button_2-0 EX 17 7 0 10 -262144 -1 -1 0
1;
#X obj 224 89 tgl 30 0 b1 button_1-0 SQ 17 7 0 10 -262144 -1 -1 0 1
;
#X obj 284 89 tgl 30 0 b3 button_3-0 CI 17 7 0 10 -262144 -1 -1 0 1
;
#X obj 254 59 tgl 30 0 b4 button_4-0 TR 17 7 0 10 -262144 -1 -1 0 1
;
#X obj 122 41 tgl 15 0 b5 button_5-0 L1 17 7 0 10 -262144 -1 -1 0 1
;
#X obj 168 41 tgl 15 0 b6 button_6-0 R 17 7 0 10 -262144 -1 -1 0 1
;
#X obj 122 26 tgl 15 0 b7 button_7-0 L2 17 7 0 10 -262144 -1 -1 0 1
;
#X obj 168 26 tgl 15 0 b8 button_8-0 R2 17 7 0 10 -262144 -1 -1 0 1
;
#X obj 90 156 tgl 30 0 b11 button_11-0 L 17 7 0 10 -262144 -1 -1 0
1;
#X obj 199 156 tgl 30 0 b12 button_12-0 R 17 7 0 10 -262144 -1 -1 0
1;
#X obj 120 158 vsl 15 40 0 255 0 0 remap-ly remap-ly-0 LY 0 -9 0 10
-262144 -1 -1 1973 1;
#X obj 184 158 vsl 15 40 0 255 0 0 remap-ry remap-ry-0 RY 0 -9 0 10
-262144 -1 -1 2004 1;
#X obj 78 141 hsl 40 15 0 255 0 0 x x-0 LX -2 -8 0 10 -262144 -1 -1
2019 1;
#X obj 202 141 hsl 40 15 0 255 0 0 z z-0 RX -2 -8 0 10 -262144 -1 -1
1988 1;
#X obj 135 64 tgl 50 0 b14 button_14-0 PAD 17 7 0 10 -262144 -1 -1
0 1;
#X obj 150 180 tgl 15 0 b13 button_13-0 PS 17 7 0 10 -262144 -1 -1
0 1;
#X obj 82 64 tgl 15 0 b9 button_9-0 share 17 7 0 10 -262144 -1 -1 0
1;
#X obj 200 64 tgl 15 0 b10 button_10-0 option 17 7 0 10 -262144 -1
-1 0 1;
#X obj 199 16 vsl 15 40 0 255 0 0 ry ry-0 RY 0 -9 0 10 -262144 -1 -1
0 1;
#X obj 100 16 vsl 15 40 0 255 0 0 rx rx-0 LY 0 -9 0 10 -262144 -1 -1
0 1;
#X obj 35 59 bng 30 250 50 0 up up-set up 10 15 0 10 -262144 -1 -1
;
#X obj 5 89 bng 30 250 50 0 left left-set left 4 15 0 10 -262144 -1
-1;
#X obj 65 89 bng 30 250 50 0 right right-set right 2 15 0 10 -262144
-1 -1;
#X obj 35 119 bng 30 250 50 0 down down-set down 4 15 0 10 -262144
-1 -1;
#X obj 23 155 bng 8 250 50 0 release release-set release 10 4 0 8 -262144
-1 -1;
#X obj 20 9 tgl 15 0 hidio hidio-set hidio 17 7 0 10 -204786 -1 -1
1 1;
#X obj 233 165 tgl 15 0 spat-R spat-R-set spat-R 17 7 0 10 -262144
-1 -1 0 1;
#X obj 33 165 tgl 15 0 spat-L spat-L-set spat-L 17 7 0 10 -262144 -1
-1 0 1;
#X restore 33 214 pd controller;
#X text 253 129 Reflect hidio status:;
#X obj 258 247 tgl 15 0 hidio hidio-set hidio 17 7 0 10 -204786 -1
-1 1 1;
#X connect 0 0 1 0;
#X connect 1 0 3 0;
#X connect 1 1 5 0;
#X connect 3 0 2 0;
#X connect 5 0 4 0;
#X connect 6 0 0 0;
#X connect 9 0 11 0;
#X connect 10 0 9 0;
#X restore 8 100 pd hidio __________;
#N canvas 102 193 516 300 presets 0;
#X obj 68 106 sel 1;
#X msg 68 130 \; fm-set 0 \; gr-set 0 \; impulse-set 0 \;;
#X obj 202 81 r score_number;
#X obj 202 105 sel 5;
#X obj 345 78 r score_number;
#X msg 202 134 \; gr-set 1 \; gr-tab 0 10 \; gt-set-set 40 \; print
GLISS DOWN;
#X obj 345 102 sel 10;
#X msg 345 131 \; gr-set 1 \; gr-tab 12 11 \; gt-set-set 40 \; print
SHARP SOUND;
#X obj 41 13 tgl 15 0 empty empty empty 17 7 0 10 -262144 -1 -1 0 1
;
#X obj 41 33 s enable_presets;
#X obj 44 221 r print;
#X obj 44 248 print CONDUCTOR;
#X connect 0 0 1 0;
#X connect 2 0 3 0;
#X connect 3 0 5 0;
#X connect 4 0 6 0;
#X connect 6 0 7 0;
#X connect 8 0 9 0;
#X connect 10 0 11 0;
#X restore 8 123 pd presets ________;
#N canvas 0 22 450 300 dac 0;
#X obj 44 30 catch~ mono;
#X obj 44 78 env~ 2048;
#X obj 44 102 - 100;
#X obj 44 126 s vu;
#X obj 44 54 clone -s 1 fd_dacout 4 vol;
#X obj 271 168 r vol-line;
#X obj 271 216 line;
#X obj 271 240 s vol-set;
#X obj 271 192 pack f 3000;
#X text 246 136 Line for volume start:;
#N canvas 949 49 187 348 vol 1;
#X obj 13 22 vu 15 120 vu vu -1 -8 0 10 -66577 -1 1 0;
#X obj 61 16 vsl 15 128 0 127 0 0 vol vol-set vol 0 -9 0 10 -262144
-1 -1 18100 1;
#X obj 17 151 nbx 5 14 -1e+37 1e+37 0 0 empty vol empty 0 -8 0 10 -262144
-1 -1 90 256;
#X restore 80 208 pd vol;
#X text 47 185 Main Volume GUI:;
#X text 237 57 <-- dacs are here;
#X connect 0 0 4 0;
#X connect 1 0 2 0;
#X connect 2 0 3 0;
#X connect 4 0 1 0;
#X connect 5 0 8 0;
#X connect 6 0 7 0;
#X connect 8 0 6 0;
#X restore 8 146 pd dac ____________;
#N canvas 0 244 522 283 gui 1;
#X obj 88 83 nbx 5 14 -1e+37 1e+37 0 0 gt gt-set transp 0 -8 0 10 -262144
-1 -1 0.98 256;
#X obj 49 36 tgl 15 0 fm fm-set fm 17 7 0 10 -262144 -1 -1 0 1;
#X obj 49 81 tgl 15 0 gr gr-set gr 17 7 0 10 -262144 -1 -1 0 1;
#X obj 49 161 tgl 15 0 lor lor-set lorenz_noise 17 7 0 10 -262144 -1
-1 0 1;
#X obj 135 207 tgl 30 0 impulse-R impulse-R-set impulse-R 35 7 0 10
-262144 -1 -1 0 1;
#X obj 47 207 tgl 30 0 impulse-L impulse-L-set impulse-L 35 7 0 10
-262144 -1 -1 0 1;
#X symbolatom 148 80 4 0 0 2 wave gr-osc -;
#X symbolatom 194 80 4 0 0 2 envelope gr-env -;
#X obj 12 8 tgl 15 0 hidio hidio-set hidio 17 7 0 10 -204786 -1 -1
1 1;
#X text 233 81 noi---noi (loud);
#X obj 49 126 tgl 15 0 voices voices-set voices 17 7 0 10 -262144 -1
-1 0 1;
#X text 105 121 (pad = onoff) (flechas disparan);
#X text 79 32 (option == onoff) (gatillos controlan);
#X text 230 210 (r1 y l1 = onoff) (analog controlan);
#X symbolatom 196 244 0 0 0 2 imp-tab imp-tab-set imp-tab;
#X text 253 245 (circulo);
#X text 134 157 (cuadrado = onoff) (analog controlan);
#X restore 8 169 pd gui ____________;
#X msg 188 68 4;
#X msg 262 101 reload;
#X obj 292 43 tgl 15 0 empty empty empty 17 7 0 10 -262144 -1 -1 0
1;
#X msg 292 63 \; pd dsp \$1;
#X msg 231 43 1;
#X obj 231 69 dac~ 3;
#X msg 197 92 6;
#X connect 2 0 1 0;
#X connect 3 0 1 0;
#X connect 12 0 1 0;
#X connect 13 0 1 0;
#X connect 14 0 15 0;
#X connect 16 0 17 0;
#X connect 18 0 1 0;
