#N canvas 530 50 409 198 12;
#X declare -lib fd_lib -path ./lib;
#N canvas 0 22 450 300 dependencies 0;
#X obj 47 28 declare -lib fd_lib -path ./lib;
#X obj 62 89 loadbang;
#X msg 62 113 \; pd-controller vis 1 \; pd-gui vis 1;
#X connect 1 0 2 0;
#X restore 8 8 pd dependencies ___;
#N canvas 936 307 450 300 instruments 0;
#N canvas 852 208 359 199 impulse 0;
#X obj 15 16 tgl 15 0 hidio hidio-set hidio 17 7 0 10 -204786 -1 -1
0 1;
#N canvas 542 209 738 569 left 0;
#X obj 40 133 mtof;
#X obj 193 372 *~;
#X obj 193 401 *~;
#X obj 483 326 fd_switch;
#X text 45 448 very hot signal -->;
#X obj 193 496 throw~ dacout-1;
#X floatatom 42 71 5 0 0 0 - - -;
#X floatatom 322 43 5 0 0 0 - - -;
#X obj 534 100 sel 1;
#X obj 529 138 tgl 15 0 empty empty empty 17 7 0 10 -262144 -1 -1 0
1;
#X obj 546 423 switch~;
#X obj 482 282 r impulse-L;
#X obj 530 156 s impulse-L-set;
#X obj 315 112 phasor~;
#X obj 316 158 *~ 2048;
#X obj 317 186 +~ 1;
#X obj 309 230 tabread4~ 0-sin;
#X msg 396 186 set \$1;
#X obj 406 143 r imp-tab;
#X obj 308 290 lop~ 40;
#X floatatom 453 241 5 0 0 0 - - -;
#X obj 308 260 *~ 0.8;
#X obj 193 448 *~ 0.7;
#N canvas 0 22 450 300 fm 0;
#X obj 79 156 fd_fm;
#X obj 62 86 expr $f1 \; $f1*3*$f2 \; $f1*1.5*$f2 \;;
#X obj 62 33 inlet;
#X obj 62 59 spigot 1;
#X obj 79 182 *~;
#X obj 79 208 outlet~;
#X obj 278 36 inlet;
#X obj 278 62 fd_switch;
#X obj 336 114 t f f;
#X obj 368 177 switch~;
#X connect 0 0 4 0;
#X connect 1 0 0 0;
#X connect 1 1 0 1;
#X connect 1 2 0 2;
#X connect 2 0 3 0;
#X connect 3 0 1 0;
#X connect 4 0 5 0;
#X connect 6 0 7 0;
#X connect 7 0 4 1;
#X connect 7 1 8 0;
#X connect 8 0 3 1;
#X connect 8 1 9 0;
#X restore 62 196 pd fm;
#X obj 140 146 tgl 15 0 empty empty empty 17 7 0 10 -262144 -1 -1 1
1;
#X obj 25 95 fd_map2 0 127 20 120;
#X obj 37 14 r lefty;
#X obj 314 16 r leftx;
#X obj 314 67 fd_map2 0 127 0.2 35;
#X obj 544 25 r leftshoulder;
#X obj 173 145 loadbang;
#X msg 174 178 1;
#X connect 0 0 23 0;
#X connect 1 0 2 0;
#X connect 2 0 22 0;
#X connect 3 0 2 1;
#X connect 3 1 10 0;
#X connect 8 0 9 0;
#X connect 9 0 12 0;
#X connect 11 0 3 0;
#X connect 13 0 14 0;
#X connect 14 0 15 0;
#X connect 15 0 16 0;
#X connect 16 0 21 0;
#X connect 17 0 16 0;
#X connect 18 0 17 0;
#X connect 19 0 1 1;
#X connect 21 0 19 0;
#X connect 22 0 5 0;
#X connect 23 0 1 0;
#X connect 24 0 23 1;
#X connect 25 0 0 0;
#X connect 26 0 6 0;
#X connect 26 0 25 0;
#X connect 27 0 7 0;
#X connect 27 0 28 0;
#X connect 28 0 13 0;
#X connect 29 0 8 0;
#X connect 30 0 31 0;
#X connect 31 0 24 0;
#X restore 27 64 pd left;
#N canvas 681 185 599 545 right 0;
#X obj 93 242 fd_fm;
#X obj 76 142 mtof;
#X obj 76 172 expr $f1 \; $f1*3*$f2 \; $f1*1.5*$f2 \;;
#X obj 126 282 *~;
#X obj 126 366 *~;
#X obj 327 346 fd_switch;
#X obj 126 456 throw~ dacout-2;
#X floatatom 78 38 5 0 0 0 - - -;
#X floatatom 250 33 5 0 0 0 - - -;
#X obj 482 53 sel 1;
#X obj 477 91 tgl 15 0 empty empty empty 17 7 0 10 -262144 -1 -1 0
1;
#X obj 364 392 switch~;
#X obj 473 120 s impulse-R-set;
#X obj 332 321 r impulse-R;
#X obj 239 97 phasor~;
#X obj 240 128 *~ 2048;
#X obj 241 156 +~ 1;
#X obj 238 194 tabread4~ 0-sin;
#X msg 325 150 set \$1;
#X obj 321 123 r imp-tab;
#X obj 237 254 lop~ 40;
#X obj 237 224 *~ 0.8;
#X obj 126 411 *~ 0.7;
#X obj 481 17 r rightshoulder;
#X obj 238 10 r rightx;
#X obj 238 61 fd_map2 0 127 0.2 35;
#X obj 65 13 r righty;
#X obj 65 64 fd_map2 0 127 20 120;
#X connect 0 0 3 0;
#X connect 1 0 2 0;
#X connect 2 0 0 0;
#X connect 2 1 0 1;
#X connect 2 2 0 2;
#X connect 3 0 4 0;
#X connect 4 0 22 0;
#X connect 5 0 4 1;
#X connect 5 1 11 0;
#X connect 9 0 10 0;
#X connect 10 0 12 0;
#X connect 13 0 5 0;
#X connect 14 0 15 0;
#X connect 15 0 16 0;
#X connect 16 0 17 0;
#X connect 17 0 21 0;
#X connect 18 0 17 0;
#X connect 19 0 18 0;
#X connect 20 0 3 1;
#X connect 21 0 20 0;
#X connect 22 0 6 0;
#X connect 23 0 9 0;
#X connect 24 0 8 0;
#X connect 24 0 25 0;
#X connect 25 0 14 0;
#X connect 26 0 7 0;
#X connect 26 0 27 0;
#X connect 27 0 1 0;
#X restore 26 93 pd right;
#X obj 208 77 counter -m 14;
#X obj 208 103 fd_seltab;
#X obj 206 128 s imp-tab-set;
#X symbolatom 60 25 0 0 0 2 imp-tab imp-tab-set imp-tab;
#X obj 252 44 loadbang;
#X obj 210 47 sel 1;
#X obj 213 17 r b;
#X connect 3 0 4 0;
#X connect 4 0 5 0;
#X connect 7 0 3 0;
#X connect 8 0 3 0;
#X connect 9 0 8 0;
#X restore 18 73 pd impulse;
#N canvas 344 203 891 570 lorenz 0;
#X obj 338 295 r lor;
#X obj 309 390 fd_switch;
#X obj 369 418 switch~;
#X obj 12 8 tgl 15 0 hidio hidio-set hidio 17 7 0 10 -204786 -1 -1
0 1;
#X obj 64 8 tgl 15 0 lor lor-set lor 17 7 0 10 -262144 -1 -1 0 1;
#X obj 40 106 r lor;
#X obj 40 130 metro 1;
#X obj 40 154 lorenz;
#X obj 86 298 vline~;
#X obj 126 321 vline~;
#X obj 86 361 *~ 0.33;
#X obj 167 342 vline~;
#X obj 40 178 unpack f f f;
#X obj 40 202 fd_norm;
#X obj 80 225 fd_norm;
#X obj 121 251 fd_norm;
#X obj 86 409 *~;
#X obj 277 194 sel 1;
#X obj 277 220 s lor-set;
#X floatatom 123 138 5 0 0 0 - - -;
#X obj 50 518 throw~ dacout-1;
#X obj 543 98 r lor;
#X obj 543 122 metro 1;
#X obj 543 146 lorenz;
#X obj 589 290 vline~;
#X obj 629 313 vline~;
#X obj 589 353 *~ 0.33;
#X obj 670 334 vline~;
#X obj 543 170 unpack f f f;
#X obj 543 194 fd_norm;
#X obj 583 217 fd_norm;
#X obj 624 243 fd_norm;
#X obj 589 401 *~;
#X floatatom 626 130 5 0 0 0 - - -;
#X obj 624 44 fd_map2 0 256 0.3 0.002;
#X obj 86 106 max 0.004;
#X obj 589 98 max 0.004;
#X obj 175 447 fd_pan;
#X obj 68 463 *~;
#X obj 108 463 *~;
#X obj 569 514 throw~ dacout-1;
#X obj 694 443 fd_pan;
#X obj 587 459 *~;
#X obj 627 459 *~;
#X obj 170 518 throw~ dacout-2;
#X obj 689 514 throw~ dacout-2;
#X obj 121 28 r righty;
#X obj 121 52 fd_map2 0 127 0.3 0.002;
#X obj 624 20 r lefty;
#X obj 277 168 r x;
#X obj 698 396 r rightx;
#X obj 217 351 r leftx;
#X floatatom 217 377 5 0 0 0 - - -;
#X obj 179 426 / 127;
#X obj 698 422 / 127;
#X connect 0 0 1 0;
#X connect 1 0 16 1;
#X connect 1 0 32 1;
#X connect 1 1 2 0;
#X connect 5 0 6 0;
#X connect 6 0 7 0;
#X connect 7 0 12 0;
#X connect 8 0 10 0;
#X connect 9 0 10 0;
#X connect 10 0 16 0;
#X connect 11 0 10 0;
#X connect 12 0 13 0;
#X connect 12 1 14 0;
#X connect 12 2 15 0;
#X connect 13 1 8 0;
#X connect 14 1 9 0;
#X connect 15 1 11 0;
#X connect 16 0 38 0;
#X connect 16 0 39 0;
#X connect 17 0 18 0;
#X connect 21 0 22 0;
#X connect 22 0 23 0;
#X connect 23 0 28 0;
#X connect 24 0 26 0;
#X connect 25 0 26 0;
#X connect 26 0 32 0;
#X connect 27 0 26 0;
#X connect 28 0 29 0;
#X connect 28 1 30 0;
#X connect 28 2 31 0;
#X connect 29 1 24 0;
#X connect 30 1 25 0;
#X connect 31 1 27 0;
#X connect 32 0 42 0;
#X connect 32 0 43 0;
#X connect 34 0 36 0;
#X connect 35 0 6 1;
#X connect 35 0 19 0;
#X connect 36 0 22 1;
#X connect 36 0 33 0;
#X connect 37 0 38 1;
#X connect 37 1 39 1;
#X connect 38 0 20 0;
#X connect 39 0 44 0;
#X connect 41 0 42 1;
#X connect 41 1 43 1;
#X connect 42 0 40 0;
#X connect 43 0 45 0;
#X connect 46 0 47 0;
#X connect 47 0 35 0;
#X connect 48 0 34 0;
#X connect 49 0 17 0;
#X connect 50 0 54 0;
#X connect 51 0 52 0;
#X connect 51 0 53 0;
#X connect 53 0 37 0;
#X connect 54 0 41 0;
#X restore 18 100 pd lorenz;
#X obj 267 21 r pd-dsp-started;
#X obj 267 104 fd_windows 0 2051;
#X obj 267 43 bng 15 250 50 0 empty empty empty 17 7 0 10 -262144 -1
-1;
#N canvas 0 0 993 778 fm_mod 0;
#X obj 272 390 *~;
#X obj 272 340 osc~;
#X obj -4 110 tgl 15 0 hidio hidio-set hidio 17 7 0 10 -204786 -1 -1
0 1;
#X obj 471 264 / 255;
#X obj 272 266 crand 10 100;
#X obj 272 290 pack f 1000;
#X obj 272 199 sel 1 0;
#X obj 272 314 line~;
#X obj 471 290 pack f 10;
#X obj 471 314 line~;
#X obj 471 371 +~ 1;
#X obj 204 480 / 255;
#X obj 86 290 pack f 1000;
#X obj 92 235 sel 1 0;
#X obj 86 314 line~;
#X obj 204 504 pack f 100;
#X obj 204 528 line~;
#X obj 68 584 phasor~;
#X obj 204 624 cos~;
#X obj 68 621 cos~;
#X obj 68 390 +~ 40;
#X obj 86 266 crand 50 5000;
#X obj 276 573 phasor~;
#X obj 276 597 *~ 2048;
#X obj 276 621 +~ 1;
#X obj 276 645 tabread4~;
#X obj 276 669 lop~ 100;
#X obj 68 688 *~;
#X obj 204 688 *~;
#X obj 447 537 sel 1;
#X obj 447 585 fd_seltab;
#X obj 447 561 random 14;
#X msg 447 609 set \$1;
#X obj 276 547 *~ 400;
#X obj 346 239 crand 10 100;
#X obj 160 239 crand 10 100;
#X obj 625 244 sel 1;
#X obj 625 292 t f f;
#X obj 383 114 expr $f1 \; $f1*1.2;
#X obj 383 158 pack;
#X msg 383 182 set \$1 \$2;
#X obj 68 133 lop~ 10;
#X obj 68 340 *~;
#X obj 68 109 phasor~ -112;
#X obj 625 268 random 30;
#X obj 708 699 fd_switch;
#X obj 785 717 switch~;
#X obj 68 718 *~;
#X obj 204 718 *~;
#X obj 471 349 *~ 2000;
#X obj 383 206 t a a;
#X obj 631 205 spigot;
#X obj 273 169 spigot;
#X obj 98 200 spigot;
#X obj 449 510 spigot;
#X obj 210 450 spigot;
#X obj 476 239 spigot;
#X floatatom 17 131 5 0 0 0 - - -;
#X floatatom 532 205 5 0 0 0 - - -;
#X obj 68 747 throw~ dacout-1;
#X obj 204 746 throw~ dacout-2;
#X obj 204 656 *~ 0.1;
#X obj 68 654 *~ 0.1;
#X obj 771 492 t f f f f f f f;
#X obj 578 20 r x;
#X obj 664 26 r y;
#X obj 472 30 r righttrigger;
#X obj 447 44 tgl 15 0 empty empty empty 17 7 0 10 -262144 -1 -1 0
1;
#X obj 490 106 metro 10;
#X obj 490 158 / 127;
#X obj 490 132 counter -m 127;
#X floatatom 490 184 5 0 0 0 - - -;
#X obj 442 68 sel;
#X obj 476 67 t f f f;
#X obj 172 21 tgl 15 0 empty empty empty 17 7 0 10 -262144 -1 -1 0
1;
#X obj 215 83 metro 10;
#X obj 215 135 / 127;
#X obj 215 109 counter -m 127;
#X obj 167 45 sel;
#X obj 201 44 t f f f;
#X obj 197 7 r lefttrigger;
#X obj 802 80 tgl 15 0 empty empty empty 17 7 0 10 -262144 -1 -1 0
1;
#X obj 806 34 r start;
#X obj 806 60 sel 1;
#X obj 799 103 s fm-set;
#X obj 782 462 r fm;
#X connect 0 0 17 0;
#X connect 1 0 0 0;
#X connect 3 0 8 0;
#X connect 4 0 5 0;
#X connect 5 0 7 0;
#X connect 6 0 4 0;
#X connect 6 1 34 0;
#X connect 7 0 1 0;
#X connect 8 0 9 0;
#X connect 9 0 49 0;
#X connect 10 0 0 1;
#X connect 11 0 15 0;
#X connect 12 0 14 0;
#X connect 13 0 21 0;
#X connect 13 1 35 0;
#X connect 14 0 42 1;
#X connect 15 0 16 0;
#X connect 16 0 18 0;
#X connect 16 0 33 0;
#X connect 17 0 18 0;
#X connect 17 0 19 0;
#X connect 18 0 61 0;
#X connect 19 0 62 0;
#X connect 20 0 17 0;
#X connect 21 0 12 0;
#X connect 22 0 23 0;
#X connect 23 0 24 0;
#X connect 24 0 25 0;
#X connect 25 0 26 0;
#X connect 26 0 28 1;
#X connect 26 0 27 1;
#X connect 27 0 47 0;
#X connect 28 0 48 0;
#X connect 29 0 31 0;
#X connect 30 0 32 0;
#X connect 31 0 30 0;
#X connect 32 0 25 0;
#X connect 33 0 22 0;
#X connect 34 0 5 1;
#X connect 35 0 12 1;
#X connect 36 0 44 0;
#X connect 37 0 38 0;
#X connect 37 1 33 1;
#X connect 38 0 39 0;
#X connect 38 1 39 1;
#X connect 39 0 40 0;
#X connect 40 0 50 0;
#X connect 41 0 42 0;
#X connect 42 0 20 0;
#X connect 43 0 41 0;
#X connect 44 0 37 0;
#X connect 45 0 48 1;
#X connect 45 0 47 1;
#X connect 45 1 46 0;
#X connect 47 0 59 0;
#X connect 48 0 60 0;
#X connect 49 0 10 0;
#X connect 50 0 35 0;
#X connect 50 1 34 0;
#X connect 51 0 36 0;
#X connect 52 0 6 0;
#X connect 53 0 13 0;
#X connect 54 0 29 0;
#X connect 55 0 11 0;
#X connect 56 0 3 0;
#X connect 61 0 28 0;
#X connect 62 0 27 0;
#X connect 63 0 53 1;
#X connect 63 1 52 1;
#X connect 63 2 56 1;
#X connect 63 3 51 1;
#X connect 63 4 55 1;
#X connect 63 5 54 1;
#X connect 63 6 45 0;
#X connect 64 0 54 0;
#X connect 65 0 51 0;
#X connect 66 0 67 0;
#X connect 67 0 73 0;
#X connect 68 0 70 0;
#X connect 69 0 71 0;
#X connect 69 0 56 0;
#X connect 70 0 69 0;
#X connect 72 0 70 0;
#X connect 73 0 72 0;
#X connect 73 1 68 0;
#X connect 73 2 52 0;
#X connect 74 0 79 0;
#X connect 75 0 77 0;
#X connect 76 0 55 0;
#X connect 77 0 76 0;
#X connect 78 0 77 0;
#X connect 79 0 78 0;
#X connect 79 1 75 0;
#X connect 79 2 53 0;
#X connect 80 0 74 0;
#X connect 81 0 84 0;
#X connect 82 0 83 0;
#X connect 83 0 81 0;
#X connect 85 0 63 0;
#X restore 18 18 pd fm_mod;
#X obj 73 167 tgl 15 0 empty empty empty 17 7 0 10 -262144 -1 -1 0
1;
#X obj 73 187 s debug;
#X symbolatom 156 176 0 0 0 2 imp-tab imp-tab-set imp-tab;
#X obj 155 213 r imp-tab;
#X msg 155 237 \; imp-tab-label label \$1;
#X connect 2 0 4 0;
#X connect 6 0 7 0;
#X connect 9 0 10 0;
#X restore 6 83 pd instruments ____;
#N canvas 0 22 450 300 dac 0;
#X obj 44 30 catch~ mono;
#X obj 44 78 env~ 2048;
#X obj 44 102 - 100;
#X obj 44 126 s vu;
#X obj 44 54 clone -s 1 fd_dacout 4 vol;
#X obj 271 168 r vol-line;
#X obj 271 216 line;
#X obj 271 240 s vol-set;
#X obj 271 192 pack f 3000;
#X text 246 136 Line for volume start:;
#N canvas 949 49 137 195 vol 0;
#X restore 80 208 pd vol;
#X text 47 185 Main Volume GUI:;
#X text 237 57 <-- dacs are here;
#X connect 0 0 4 0;
#X connect 1 0 2 0;
#X connect 2 0 3 0;
#X connect 4 0 1 0;
#X connect 5 0 8 0;
#X connect 6 0 7 0;
#X connect 8 0 6 0;
#X restore 6 106 pd dac ____________;
#N canvas 20 475 499 246 gui 1;
#X obj 104 59 tgl 15 0 fm fm-set fm 17 7 0 10 -262144 -1 -1 0 1;
#X obj 104 91 tgl 15 0 lor lor-set lorenz_noise 17 7 0 10 -262144 -1
-1 0 1;
#X obj 104 158 tgl 15 0 impulse-R impulse-R-set impulse-R 17 7 0 10
-262144 -1 -1 0 1;
#X obj 104 126 tgl 15 0 impulse-L impulse-L-set impulse-L 17 7 0 10
-262144 -1 -1 0 1;
#X obj 12 8 tgl 15 0 hidio hidio-set hidio 17 7 0 10 -204786 -1 -1
0 1;
#X obj 387 47 vu 15 120 vu vu -1 -8 0 10 -66577 -1 1 0;
#X obj 435 41 vsl 15 128 0 127 0 0 vol vol-set vol 0 -9 0 10 -262144
-1 -1 0 1;
#X obj 387 182 nbx 5 14 -1e+37 1e+37 0 0 empty vol empty 0 -8 0 10
-262144 -1 -1 0 256;
#X text 17 58 (option);
#X text 220 58 (L2/R2 shoulders);
#X text 17 90 (square);
#X text 212 90 (analog LR);
#X text 42 125 (L1);
#X text 42 157 (R1);
#X text 221 125 (analog L);
#X text 219 157 (analog R);
#X text 109 22 ON/OFF;
#X text 229 21 CONTROL;
#X text 195 24 |||||||||||, f 1;
#X text 83 24 |||||||||||, f 1;
#X obj 95 197 cnv 15 80 30 empty imp-tab-label 0-sin 20 15 0 14 -228856
-1 0;
#X text 42 30 ____________________________________________;
#X restore 6 130 pd gui ____________;
#N canvas 535 276 400 334 controller 1;
#N canvas 0 22 1102 756 joy 0;
#X obj 621 212 r y;
#X obj 410 266 tgl 15 0 empty empty empty 17 7 0 10 -262144 -1 -1 0
1;
#X obj 755 246 r b;
#X obj 425 279 tgl 15 0 empty empty empty 17 7 0 10 -262144 -1 -1 0
1;
#X obj 610 292 r a;
#X obj 410 293 tgl 15 0 empty empty empty 17 7 0 10 -262144 -1 -1 0
1;
#X obj 395 279 tgl 15 0 empty empty empty 17 7 0 10 -262144 -1 -1 0
1;
#X obj 544 248 r x;
#X obj 16 253 r dpleft;
#X obj 278 279 tgl 15 0 empty empty empty 17 7 0 10 -262144 -1 -1 0
1;
#X obj 308 279 tgl 15 0 empty empty empty 17 7 0 10 -262144 -1 -1 0
1;
#X obj 123 263 r dpright;
#X obj 293 266 tgl 15 0 empty empty empty 17 7 0 10 -262144 -1 -1 0
1;
#X obj 91 243 r dpup;
#X obj 293 293 tgl 15 0 empty empty empty 17 7 0 10 -262144 -1 -1 0
1;
#X obj 61 284 r dpdown;
#X obj 298 156 r back;
#X obj 315 243 tgl 15 0 empty empty empty 17 7 0 10 -262144 -1 -1 0
1;
#X obj 389 153 r start;
#X obj 379 243 tgl 15 0 empty empty empty 17 7 0 10 -262144 -1 -1 0
1;
#X obj 423 206 tgl 15 0 empty empty empty 17 7 0 10 -262144 -1 -1 0
1;
#X obj 463 157 r rightshoulder;
#X obj 539 169 r righttrigger;
#X obj 459 199 t b f;
#X obj 423 224 bng 15 250 50 0 empty empty empty 17 7 0 10 -262144
-1 -1;
#X obj 423 242 tgl 15 0 empty empty empty 17 7 0 10 -262144 -1 -1 0
1;
#X obj 279 206 tgl 15 0 empty empty empty 17 7 0 10 -262144 -1 -1 0
1;
#X obj 215 175 t b f;
#X obj 279 224 bng 15 250 50 0 empty empty empty 17 7 0 10 -262144
-1 -1;
#X obj 279 242 tgl 15 0 empty empty empty 17 7 0 10 -262144 -1 -1 0
1;
#X obj 195 140 r leftshoulder;
#X obj 75 160 r lefttrigger;
#X obj 337 174 r guide;
#X obj 77 409 r leftstick;
#X obj 306 347 tgl 15 0 empty empty empty 17 7 0 10 -262144 -1 -1 0
1;
#X obj 384 347 tgl 15 0 empty empty empty 17 7 0 10 -262144 -1 -1 0
1;
#X obj 349 305 tgl 15 0 empty empty empty 17 7 0 10 -262144 -1 -1 0
1;
#X obj 548 375 r rightstick;
#X obj 334 330 vsl 15 128 0 127 0 0 empty empty empty 0 -9 0 10 -262144
-1 -1 0 1;
#X obj 132 485 r lefty;
#X obj 361 330 vsl 15 128 0 127 0 0 empty empty empty 0 -9 0 10 -262144
-1 -1 0 1;
#X obj 592 497 r righty;
#X obj 537 321 r rightx;
#X obj 380 328 hsl 128 15 0 127 0 0 empty empty empty -2 -8 0 10 -262144
-1 -1 0 1;
#X obj 204 328 hsl 128 15 0 127 0 0 empty empty empty -2 -8 0 10 -262144
-1 -1 0 1;
#X obj 137 323 r leftx;
#X obj 212 228 tgl 15 0 hidio hidio-set hidio 17 7 0 10 -204786 -1
-1 0 1;
#X connect 0 0 1 0;
#X connect 2 0 3 0;
#X connect 4 0 5 0;
#X connect 7 0 6 0;
#X connect 8 0 9 0;
#X connect 11 0 10 0;
#X connect 13 0 12 0;
#X connect 15 0 14 0;
#X connect 16 0 17 0;
#X connect 18 0 19 0;
#X connect 21 0 20 0;
#X connect 22 0 23 0;
#X connect 23 0 24 0;
#X connect 23 1 25 0;
#X connect 27 0 28 0;
#X connect 27 1 29 0;
#X connect 30 0 26 0;
#X connect 31 0 27 0;
#X connect 32 0 36 0;
#X connect 33 0 34 0;
#X connect 37 0 35 0;
#X connect 39 0 38 0;
#X connect 41 0 40 0;
#X connect 42 0 43 0;
#X connect 45 0 44 0;
#X coords 0 -1 1 1 314 268 1 200 200;
#X restore 37 27 pd joy;
#X coords 0 334 1 333 85 60 0;
#X restore 8 57 pd controller _____;
#N canvas 166 47 626 580 joyosc 0;
#X obj 15 11 tgl 15 0 hidio hidio-set hidio 17 7 0 10 -204786 -1 -1
0 1;
#X obj 43 253 route devices notifications;
#X obj 43 227 route joyosc;
#X obj 45 56 r hidio;
#X obj 43 170 oscparse;
#X obj 43 199 list trim;
#X msg 108 109 listen 8880;
#X msg 43 108 listen 0;
#X obj 43 143 netreceive -u -b;
#X obj 43 82 sel;
#X obj 43 282 route gc0;
#X obj 46 326 route button axis;
#X obj 148 426 + 32767;
#X obj 149 452 / 65534;
#X obj 154 481 * 127;
#X obj 227 54 route float;
#X obj 227 29 r hidio;
#X msg 227 78 \; hidio-set set \$1;
#X text 203 5 Reflect hidio status:;
#X obj 152 354 t a a;
#X obj 234 393 list split 1;
#X obj 182 523 s;
#X obj 105 398 list split 1;
#X msg 37 393 \; \$1 \$2;
#X obj 34 366 list;
#X obj 241 300 spigot;
#X obj 241 326 print;
#X obj 44 304 t a a;
#X obj 272 258 r debug;
#X obj 396 42 r guide;
#X obj 396 68 sel 1;
#X obj 398 98 tgl 15 0 empty empty empty 17 7 0 10 -262144 -1 -1 0
1;
#X msg 394 150 \; pd dsp \$1;
#X obj 396 124 t f f;
#X obj 499 148 * 100;
#X msg 499 174 \; vol-set \$1;
#X connect 1 0 10 0;
#X connect 2 0 1 0;
#X connect 3 0 9 0;
#X connect 4 0 5 0;
#X connect 5 0 2 0;
#X connect 6 0 8 0;
#X connect 7 0 8 0;
#X connect 8 0 4 0;
#X connect 9 0 7 0;
#X connect 9 1 6 0;
#X connect 10 0 27 0;
#X connect 11 0 24 0;
#X connect 11 1 19 0;
#X connect 12 0 13 0;
#X connect 13 0 14 0;
#X connect 14 0 21 0;
#X connect 15 0 17 0;
#X connect 16 0 15 0;
#X connect 19 0 22 0;
#X connect 19 1 20 0;
#X connect 20 0 21 1;
#X connect 22 1 12 0;
#X connect 24 0 23 0;
#X connect 25 0 26 0;
#X connect 27 0 11 0;
#X connect 27 1 25 0;
#X connect 28 0 25 1;
#X connect 29 0 30 0;
#X connect 30 0 31 0;
#X connect 31 0 33 0;
#X connect 33 0 32 0;
#X connect 33 1 34 0;
#X connect 34 0 35 0;
#X restore 8 32 pd joyosc _________;
