#N canvas 0 22 450 300 12;
#X obj 48 90 t f f;
#X obj 48 114 / 44.1;
#X msg 48 138 0 \, 1 \$1;
#X obj 48 162 line~;
#X obj 48 186 *~;
#X obj 48 210 +~ 1;
#X obj 130 135 - 3;
#X obj 48 270 outlet~;
#X obj 49 14 inlet;
#X obj 48 66 array size \$2;
#X obj 48 237 tabread4~ \$2;
#X obj 291 15 inlet;
#X msg 269 154 set \$1;
#X obj 291 39 t a a;
#X connect 0 0 1 0;
#X connect 0 1 6 0;
#X connect 1 0 2 0;
#X connect 2 0 3 0;
#X connect 3 0 4 0;
#X connect 4 0 5 0;
#X connect 5 0 10 0;
#X connect 6 0 4 1;
#X connect 8 0 9 0;
#X connect 9 0 0 0;
#X connect 10 0 7 0;
#X connect 11 0 13 0;
#X connect 12 0 10 0;
#X connect 13 0 9 1;
#X connect 13 1 12 0;
