#N canvas 0 22 594 605 12;
#X obj 229 285 line~;
#X obj 229 357 *~;
#X obj 52 378 *~;
#X msg 147 31 1;
#X obj 52 79 spigot 1;
#X obj 52 19 inlet;
#X obj 52 321 tabplay~ \$2-\$1;
#X obj 229 333 *~;
#X obj 229 112 del 1 1 samp;
#X msg 237 184 0 \, 1 3;
#X obj 229 85 - 250;
#X msg 229 138 0 3;
#X obj 52 163 t b b b b;
#X obj 245 430 random 2;
#X obj 245 454 + 1;
#X msg 245 478 set dacout-\$1;
#X obj 52 499 throw~;
#X msg 368 342 0;
#X obj 52 419 *~;
#X obj 409 398 fd_switch;
#X obj 469 449 switch~;
#X msg 470 342 1;
#X obj 409 14 inlet;
#X obj 52 104 t b b b;
#X msg 120 79 0;
#X obj 228 55 t f f;
#X obj 227 27 r \$2-\$1-size;
#X connect 0 0 7 0;
#X connect 0 0 7 1;
#X connect 1 0 2 1;
#X connect 2 0 18 0;
#X connect 3 0 4 1;
#X connect 4 0 23 0;
#X connect 5 0 4 0;
#X connect 6 0 2 0;
#X connect 6 1 3 0;
#X connect 6 1 17 0;
#X connect 7 0 1 0;
#X connect 7 0 1 1;
#X connect 8 0 11 0;
#X connect 9 0 0 0;
#X connect 10 0 8 0;
#X connect 11 0 0 0;
#X connect 12 2 9 0;
#X connect 12 3 13 0;
#X connect 13 0 14 0;
#X connect 14 0 15 0;
#X connect 15 0 16 0;
#X connect 17 0 19 0;
#X connect 18 0 16 0;
#X connect 19 0 18 1;
#X connect 19 1 20 0;
#X connect 21 0 19 0;
#X connect 22 0 19 0;
#X connect 23 0 12 0;
#X connect 23 1 21 0;
#X connect 23 2 24 0;
#X connect 24 0 4 1;
#X connect 25 0 10 0;
#X connect 26 0 25 0;
