#N canvas 258 207 450 300 12;
#X obj 29 174 *~ 0.125;
#X obj 29 197 rzero~ -1;
#X obj 29 220 rzero~ -1;
#X obj 29 243 rzero~ -1;
#X obj 204 29 block~ 1024 1 16;
#X obj 29 270 outlet~;
#X obj 29 59 *~ 0.0646189;
#X obj 29 105 *~ 0.00431051;
#X obj 29 82 rpole~ 0.935381;
#X obj 29 128 cpole~ 0.935381 0.05592;
#X obj 29 152 cpole~ 0.935381 -0.05592;
#X text 166 186 butterworth with cutoff at 7500Hz;
#X obj 29 12 inlet~;
#X obj 29 36 tabosc4~;
#X obj 93 13 inlet;
#X connect 0 0 1 0;
#X connect 1 0 2 0;
#X connect 2 0 3 0;
#X connect 3 0 5 0;
#X connect 6 0 8 0;
#X connect 7 0 9 0;
#X connect 8 0 7 0;
#X connect 9 0 10 0;
#X connect 9 1 10 1;
#X connect 10 0 0 0;
#X connect 12 0 13 0;
#X connect 13 0 6 0;
#X connect 14 0 13 0;
